# xmcd
#
# Track frame offsets:
#	150
#	17932
#	41137
#	69421
#	72259
#	93945
#	115218
#	136570
#	141089
#	159844
#	185669
#	205307
#	219617
#
# Disc length: 3210 seconds
#
# Revision: 1
# Processed by: cddbd v1.5.1PL0 Copyright (c) Steve Scherf et al.
# Submitted via: CDmax 2.0
#
DISCID=ba0c880d
DTITLE=Little Axe - Champagne and Grits
DYEAR=2004
DGENRE=Blues
TTITLE0=People Grinning In Your Face
TTITLE1=Finger On The Trigger
TTITLE2=Mean Things
TTITLE3=The Way I See It
TTITLE4=Walk On Water
TTITLE5=Go Away Devil
TTITLE6=Say My Name
TTITLE7=Take Me Back To The Country
TTITLE8=All In The Same Boat
TTITLE9=Living And Sleeping In A Dangerous Time
TTITLE10=Will I Ever Get Back Home Again?
TTITLE11=Cloud
TTITLE12=Sinners
EXTD=
EXTT0=
EXTT1=
EXTT2=
EXTT3=
EXTT4=
EXTT5=
EXTT6=
EXTT7=
EXTT8=
EXTT9=
EXTT10=
EXTT11=
EXTT12=
PLAYORDER=
